<svg xmlns="http://www.w3.org/2000/svg" width="512px" height="512px" style="shape-rendering:geometricPrecision;text-rendering:geometricPrecision;image-rendering:optimizeQuality;fill-rule:evenodd;clip-rule:evenodd"><path fill="#6a5cff" d="M29.5-.5h452c14.601 4.934 24.601 14.6 30 29v454c-5.399 14.399-15.399 24.066-30 29h-452c-14.6-4.934-24.6-14.601-30-29v-454c5.4-14.4 15.4-24.066 30-29Z" style="opacity:.999"/><path fill="#fefeff" d="M175.5 115.5h160c.167 44.001 0 88.001-.5 132-6.306 70.309-38.14 125.643-95.5 166a1495.666 1495.666 0 0 1-46-46c29.64-23.014 48.307-53.014 56-90-24.658-1-49.324-1.333-74-1v-161Z" style="opacity:1"/></svg>